<?xml version="1.0" encoding="UTF-8"?>
<svg id="Objects" xmlns="http://www.w3.org/2000/svg" viewBox="0 0 2200 2200">
  <defs>
    <style>
      .cls-1 {
        fill: #fff;
      }
    </style>
  </defs>
  <path class="cls-1" d="M781.88,1264.26c17.27-177.75,105.17-371.13,247.51-544.49,55.35-67.41,119.72-123.98,191.34-168.13,68.97-42.53,141.69-71.79,216.14-86.98,38.06-7.77,75.57-11.65,112.27-11.65,34.67,0,68.63,3.47,101.62,10.41,32.94,6.93,64.25,17.2,93.75,30.72,19.68,9.02,18.32,37.48-2.12,44.59-73.99,25.72-141.39,64.94-198.49,115.96-83.68,74.76-140.52,170.67-164.36,277.35-11.44,51.19-15.83,104.78-20.08,156.6-4.67,56.95-9.49,115.84-23.8,169.47-28.51,106.87-96.79,202.15-197.47,275.54-55.07,40.16-120.74,74.38-195.73,102.05-24.93,9.2-52.9,1.63-69.83-18.85-72.57-87.74-104.58-210.29-90.76-352.58ZM1956.71,1155.93c-29.37,78.84-72.33,153-127.68,220.41-68.65,83.61-146.19,156-230.46,215.16-81.18,56.99-164.97,99.25-249.04,125.58-83.43,26.14-162.71,35.21-235.63,26.97-46.1-5.21-88.41-17.26-126.5-35.98-18.49-9.09-17.5-35.7,1.58-43.46,65.92-26.8,124.55-58.81,175.01-95.6,108.87-79.37,182.86-182.98,213.98-299.64,15.33-57.43,20.32-118.31,25.14-177.19,4.13-50.34,8.39-102.39,19.17-150.62,21.83-97.69,73.98-185.61,150.8-254.24,66.35-59.28,147.88-101.4,237.79-123.16,20.62-4.99,42.28,1.12,57.25,16.15,38.5,38.66,69.17,84.46,91.43,136.64,27.22,63.83,40.81,134.49,40.41,210.04-.41,75.98-14.96,153.01-43.25,228.94Z"/>
  <path class="cls-1" d="M972.92,1737.56c-20.31-9.99-32.44-30.23-31.64-52.83.19-5.26,1.06-10.34,2.55-15.14-7.5,1.87-15.2,2.81-22.98,2.81-28.52,0-55.32-12.61-73.52-34.62-39.29-47.51-67.65-104.21-84.27-168.56-16.43-63.62-21.11-133.65-13.87-208.13,6.3-64.87,21.61-131.65,45.2-198.75-3.56-40.81-8.01-82.02-16.67-120.76-21.83-97.7-73.98-185.61-150.8-254.24-66.35-59.29-147.88-101.41-237.79-123.17-20.62-4.98-42.28,1.13-57.25,16.15-38.5,38.66-69.17,84.46-91.42,136.64-27.23,63.83-40.82,134.49-40.41,210.04.42,75.98,14.97,153.01,43.25,228.94,29.38,78.84,72.34,153,127.68,220.41,68.65,83.6,146.19,156,230.46,215.16,81.17,56.99,164.96,99.24,249.04,125.58,47.81,14.98,94.27,24.35,138.94,28.08-5.57-2.41-11.07-4.95-16.48-7.61ZM979.26,551.64c-68.98-42.52-141.7-71.79-216.14-86.99-38.07-7.76-75.57-11.65-112.28-11.65-34.67,0-68.63,3.47-101.61,10.4-32.93,6.93-64.25,17.2-93.75,30.72-19.67,9.02-18.32,37.49,2.12,44.59,73.99,25.72,141.39,64.94,198.49,115.96,83.68,74.76,140.52,170.67,164.36,277.34,3.32,14.81,6.03,29.84,8.33,44.96,43.13-94.95,102.23-189.14,175.22-278.05,22.43-27.33,46.3-52.95,71.51-76.75-30.35-26.16-62.51-49.72-96.25-70.53Z"/>
</svg>