<svg width="61" height="64" viewBox="0 0 61 64" fill="none" xmlns="http://www.w3.org/2000/svg">
<path d="M0.155989 40.1241C1.01016 31.3327 5.35766 21.7682 12.3977 13.1938C15.1353 9.85977 18.319 7.06184 21.8613 4.8782C25.2726 2.77468 28.8693 1.3275 32.5515 0.576204C34.434 0.191903 36.2892 0 38.1044 0C39.8191 0 41.4988 0.171625 43.1305 0.514875C44.7597 0.85763 46.3082 1.36558 47.7673 2.03427C48.7407 2.4804 48.6734 3.88802 47.6624 4.23968C44.0029 5.51178 40.6693 7.45158 37.8452 9.97501C33.7064 13.6726 30.8951 18.4163 29.716 23.6926C29.1502 26.2245 28.9331 28.875 28.7229 31.438C28.4919 34.2547 28.2535 37.1674 27.5457 39.8199C26.1356 45.1057 22.7585 49.8182 17.7789 53.448C15.0552 55.4343 11.8072 57.1268 8.09821 58.4954C6.86519 58.9504 5.4818 58.576 4.64445 57.5631C1.05516 53.2235 -0.528038 47.1622 0.155494 40.1246L0.155989 40.1241ZM58.2626 34.7662C56.81 38.6655 54.6852 42.3335 51.9476 45.6675C48.5522 49.8029 44.7171 53.3832 40.5492 56.3093C36.534 59.128 32.3898 61.2181 28.2317 62.5204C24.1053 63.8133 20.1842 64.2619 16.5776 63.8543C14.2975 63.5967 12.2048 63.0007 10.3209 62.0748C9.40642 61.6252 9.45538 60.3091 10.3991 59.9253C13.6595 58.5997 16.5593 57.0165 19.055 55.1969C24.4397 51.2713 28.0992 46.1468 29.6384 40.3768C30.3966 37.5364 30.6434 34.5253 30.8818 31.6131C31.086 29.1233 31.2968 26.5489 31.8299 24.1635C32.9096 19.3318 35.4889 14.9833 39.2884 11.5889C42.5701 8.65692 46.6025 6.57367 51.0494 5.49743C52.0693 5.25063 53.1406 5.55283 53.881 6.29621C55.7852 8.20832 57.3021 10.4736 58.4031 13.0544C59.7494 16.2114 60.4215 19.7062 60.4017 23.4429C60.3815 27.2008 59.6618 31.0107 58.2626 34.7662Z" fill="#FCFCFD"/>
</svg>
