<svg width="50" height="64" viewBox="0 0 50 64" fill="none" xmlns="http://www.w3.org/2000/svg">
<path d="M48.0174 5.19511H44.6307V1.55875C44.6307 0.69905 43.9316 0 43.0719 0H6.23284C5.37313 0 4.67408 0.69905 4.67408 1.55875V5.19511H1.76065C0.790231 5.19511 0 5.98534 0 6.95577V15.4811C0 16.4516 0.790231 17.2418 1.76065 17.2418H5.18209L5.49254 20.8673C4.17259 21.2885 3.31506 22.1221 3.44098 23.0535L7.65047 54.4C7.71126 54.8602 8.00869 55.2792 8.46676 55.6223L8.87056 60.3376C9.04641 62.3913 10.9395 64 13.1799 64H37.4166C39.7156 64 41.6109 62.3479 41.7324 60.2377L41.9929 55.7612C42.5856 55.3834 42.9655 54.8906 43.0155 54.3457L45.8681 22.9992C45.9463 22.1373 45.1886 21.3688 44.012 20.9411L44.2269 17.2461H48.0174C48.9878 17.2461 49.778 16.4559 49.778 15.4855V6.96011C49.778 5.98969 48.9878 5.19946 48.0174 5.19946V5.19511ZM40.1672 60.14C40.0934 61.4209 38.8863 62.4239 37.4187 62.4239H13.1821C11.7493 62.4239 10.5444 61.4469 10.438 60.1986L10.108 56.3408C10.5813 56.4537 11.098 56.5167 11.6385 56.5167H39.0252C39.5029 56.5167 39.9609 56.4668 40.3864 56.3778L40.1672 60.1422V60.14ZM23.8111 40.3604C25.7411 43.0567 26.1623 45.8334 24.5797 48.7946C24.1997 49.5066 23.7156 49.7628 22.8581 49.7303C20.1053 49.6304 18.349 48.1932 17.3048 46.1199C15.0773 41.6934 15.1121 37.1886 17.4567 32.7989C18.5769 30.7018 20.4027 29.2863 23.4833 29.1908C23.1533 30.248 22.9384 31.1381 22.5997 31.9891C21.4144 34.9742 21.9441 37.7509 23.8111 40.3582V40.3604ZM26.1167 40.8163C23.1512 37.3731 23.3531 33.7476 24.838 29.9072C25.1919 28.991 25.6803 28.8651 26.5748 29.0735C28.5351 29.5316 29.981 30.6258 30.9275 32.165C33.8128 36.8651 33.7064 41.5913 30.7322 46.222C29.7422 47.7634 28.2681 48.8836 26.095 49.3851C26.4358 48.4342 26.6725 47.7199 26.9482 47.0166C27.8057 44.8217 27.7015 42.6551 26.1167 40.8141V40.8163ZM42.4597 20.6046C42.2687 20.5894 42.0754 20.5764 41.8757 20.5764H7.42687C7.29878 20.5764 7.17069 20.5807 7.04478 20.5872L6.75821 17.2396H42.6529L42.4575 20.6024L42.4597 20.6046Z" fill="#FCFCFD"/>
</svg>
