<svg width="55" height="40" viewBox="0 0 55 40" fill="none" xmlns="http://www.w3.org/2000/svg">
<path d="M13.432 39.424C10.9573 39.424 8.696 38.784 6.648 37.504C4.68533 36.1387 3.10667 34.304 1.912 32C0.717334 29.6107 0.12 26.88 0.12 23.808C0.12 21.248 0.632 18.7733 1.656 16.384C2.68 13.9093 4.088 11.6053 5.88 9.47199C7.672 7.33866 9.80533 5.46133 12.28 3.84C14.7547 2.13333 17.4 0.895999 20.216 0.127998L25.848 6.91199C22.3493 8.448 19.4907 10.2827 17.272 12.416C15.1387 14.5493 14.072 16.384 14.072 17.92C14.072 18.944 14.4133 19.8827 15.096 20.736C15.864 21.5893 16.8027 22.4 17.912 23.168C19.8747 24.704 21.1973 26.112 21.88 27.392C22.648 28.5867 23.032 29.9093 23.032 31.36C23.032 33.8347 22.136 35.7973 20.344 37.248C18.552 38.6987 16.248 39.424 13.432 39.424ZM41.976 39.424C39.5013 39.424 37.24 38.784 35.192 37.504C33.2293 36.1387 31.6507 34.304 30.456 32C29.2613 29.6107 28.664 26.88 28.664 23.808C28.664 21.248 29.176 18.7733 30.2 16.384C31.224 13.9093 32.632 11.6053 34.424 9.47199C36.216 7.33866 38.3493 5.46133 40.824 3.84C43.2987 2.13333 45.944 0.895999 48.76 0.127998L54.392 6.91199C50.8933 8.448 48.0347 10.2827 45.816 12.416C43.6827 14.5493 42.616 16.384 42.616 17.92C42.616 18.944 42.9573 19.8827 43.64 20.736C44.408 21.5893 45.3467 22.4 46.456 23.168C48.4187 24.704 49.7413 26.112 50.424 27.392C51.192 28.5867 51.576 29.9093 51.576 31.36C51.576 33.8347 50.68 35.7973 48.888 37.248C47.096 38.6987 44.792 39.424 41.976 39.424Z" fill="#533126"/>
</svg>
